<svg width="1280" height="720" xmlns="http://www.w3.org/2000/svg" xmlns:xlink="http://www.w3.org/1999/xlink" overflow="hidden"><defs><filter id="fx0" x="-10%" y="-10%" width="120%" height="120%" filterUnits="userSpaceOnUse" primitiveUnits="userSpaceOnUse"><feComponentTransfer color-interpolation-filters="sRGB"><feFuncR type="discrete" tableValues="0.65098 0.65098"/><feFuncG type="discrete" tableValues="0.65098 0.65098"/><feFuncB type="discrete" tableValues="0.65098 0.65098"/><feFuncA type="linear" slope="0.4" intercept="0"/></feComponentTransfer><feGaussianBlur stdDeviation="4.44444 4.44444"/></filter><filter id="fx1" x="-10%" y="-10%" width="120%" height="120%" filterUnits="userSpaceOnUse" primitiveUnits="userSpaceOnUse"><feComponentTransfer color-interpolation-filters="sRGB"><feFuncR type="discrete" tableValues="0.65098 0.65098"/><feFuncG type="discrete" tableValues="0.65098 0.65098"/><feFuncB type="discrete" tableValues="0.65098 0.65098"/><feFuncA type="linear" slope="0.4" intercept="0"/></feComponentTransfer><feGaussianBlur stdDeviation="4.44444 4.44444"/></filter><filter id="fx2" x="-10%" y="-10%" width="120%" height="120%" filterUnits="userSpaceOnUse" primitiveUnits="userSpaceOnUse"><feComponentTransfer color-interpolation-filters="sRGB"><feFuncR type="discrete" tableValues="1 1"/><feFuncG type="discrete" tableValues="1 1"/><feFuncB type="discrete" tableValues="1 1"/><feFuncA type="linear" slope="0.4" intercept="0"/></feComponentTransfer><feGaussianBlur stdDeviation="4.44444 4.44444"/></filter><filter id="fx3" x="-10%" y="-10%" width="120%" height="120%" filterUnits="userSpaceOnUse" primitiveUnits="userSpaceOnUse"><feComponentTransfer color-interpolation-filters="sRGB"><feFuncR type="discrete" tableValues="0.65098 0.65098"/><feFuncG type="discrete" tableValues="0.65098 0.65098"/><feFuncB type="discrete" tableValues="0.65098 0.65098"/><feFuncA type="linear" slope="0.4" intercept="0"/></feComponentTransfer><feGaussianBlur stdDeviation="6.66667 6.66667"/></filter><filter id="fx4" x="-10%" y="-10%" width="120%" height="120%" filterUnits="userSpaceOnUse" primitiveUnits="userSpaceOnUse"><feComponentTransfer color-interpolation-filters="sRGB"><feFuncR type="discrete" tableValues="1 1"/><feFuncG type="discrete" tableValues="1 1"/><feFuncB type="discrete" tableValues="1 1"/><feFuncA type="linear" slope="0.4" intercept="0"/></feComponentTransfer><feGaussianBlur stdDeviation="4.44444 4.44444"/></filter><filter id="fx5" x="-10%" y="-10%" width="120%" height="120%" filterUnits="userSpaceOnUse" primitiveUnits="userSpaceOnUse"><feComponentTransfer color-interpolation-filters="sRGB"><feFuncR type="discrete" tableValues="0.65098 0.65098"/><feFuncG type="discrete" tableValues="0.65098 0.65098"/><feFuncB type="discrete" tableValues="0.65098 0.65098"/><feFuncA type="linear" slope="0.4" intercept="0"/></feComponentTransfer><feGaussianBlur stdDeviation="6.66667 6.66667"/></filter><filter id="fx6" x="-10%" y="-10%" width="120%" height="120%" filterUnits="userSpaceOnUse" primitiveUnits="userSpaceOnUse"><feComponentTransfer color-interpolation-filters="sRGB"><feFuncR type="discrete" tableValues="1 1"/><feFuncG type="discrete" tableValues="1 1"/><feFuncB type="discrete" tableValues="1 1"/><feFuncA type="linear" slope="0.4" intercept="0"/></feComponentTransfer><feGaussianBlur stdDeviation="4.44444 4.44444"/></filter><filter id="fx7" x="-10%" y="-10%" width="120%" height="120%" filterUnits="userSpaceOnUse" primitiveUnits="userSpaceOnUse"><feComponentTransfer color-interpolation-filters="sRGB"><feFuncR type="discrete" tableValues="0.65098 0.65098"/><feFuncG type="discrete" tableValues="0.65098 0.65098"/><feFuncB type="discrete" tableValues="0.65098 0.65098"/><feFuncA type="linear" slope="0.4" intercept="0"/></feComponentTransfer><feGaussianBlur stdDeviation="6.66667 6.66667"/></filter><filter id="fx8" x="-10%" y="-10%" width="120%" height="120%" filterUnits="userSpaceOnUse" primitiveUnits="userSpaceOnUse"><feComponentTransfer color-interpolation-filters="sRGB"><feFuncR type="discrete" tableValues="1 1"/><feFuncG type="discrete" tableValues="1 1"/><feFuncB type="discrete" tableValues="1 1"/><feFuncA type="linear" slope="0.4" intercept="0"/></feComponentTransfer><feGaussianBlur stdDeviation="4.44444 4.44444"/></filter><filter id="fx9" x="-10%" y="-10%" width="120%" height="120%" filterUnits="userSpaceOnUse" primitiveUnits="userSpaceOnUse"><feComponentTransfer color-interpolation-filters="sRGB"><feFuncR type="discrete" tableValues="0.65098 0.65098"/><feFuncG type="discrete" tableValues="0.65098 0.65098"/><feFuncB type="discrete" tableValues="0.65098 0.65098"/><feFuncA type="linear" slope="0.4" intercept="0"/></feComponentTransfer><feGaussianBlur stdDeviation="6.66667 6.66667"/></filter><filter id="fx10" x="-10%" y="-10%" width="120%" height="120%" filterUnits="userSpaceOnUse" primitiveUnits="userSpaceOnUse"><feComponentTransfer color-interpolation-filters="sRGB"><feFuncR type="discrete" tableValues="1 1"/><feFuncG type="discrete" tableValues="1 1"/><feFuncB type="discrete" tableValues="1 1"/><feFuncA type="linear" slope="0.4" intercept="0"/></feComponentTransfer><feGaussianBlur stdDeviation="4.44444 4.44444"/></filter><filter id="fx11" x="-10%" y="-10%" width="120%" height="120%" filterUnits="userSpaceOnUse" primitiveUnits="userSpaceOnUse"><feComponentTransfer color-interpolation-filters="sRGB"><feFuncR type="discrete" tableValues="0.65098 0.65098"/><feFuncG type="discrete" tableValues="0.65098 0.65098"/><feFuncB type="discrete" tableValues="0.65098 0.65098"/><feFuncA type="linear" slope="0.4" intercept="0"/></feComponentTransfer><feGaussianBlur stdDeviation="6.66667 6.66667"/></filter><filter id="fx12" x="-10%" y="-10%" width="120%" height="120%" filterUnits="userSpaceOnUse" primitiveUnits="userSpaceOnUse"><feComponentTransfer color-interpolation-filters="sRGB"><feFuncR type="discrete" tableValues="1 1"/><feFuncG type="discrete" tableValues="1 1"/><feFuncB type="discrete" tableValues="1 1"/><feFuncA type="linear" slope="0.4" intercept="0"/></feComponentTransfer><feGaussianBlur stdDeviation="4.44444 4.44444"/></filter><filter id="fx13" x="-10%" y="-10%" width="120%" height="120%" filterUnits="userSpaceOnUse" primitiveUnits="userSpaceOnUse"><feComponentTransfer color-interpolation-filters="sRGB"><feFuncR type="discrete" tableValues="0.65098 0.65098"/><feFuncG type="discrete" tableValues="0.65098 0.65098"/><feFuncB type="discrete" tableValues="0.65098 0.65098"/><feFuncA type="linear" slope="0.4" intercept="0"/></feComponentTransfer><feGaussianBlur stdDeviation="6.66667 6.66667"/></filter><clipPath id="clip14"><rect x="0" y="0" width="1280" height="720"/></clipPath><clipPath id="clip15"><rect x="12" y="12" width="41" height="50"/></clipPath><linearGradient x1="603" y1="50" x2="603" y2="229" gradientUnits="userSpaceOnUse" spreadMethod="reflect" id="fill16"><stop offset="0" stop-color="#EDEEF3"/><stop offset="0.02" stop-color="#EDEEF3"/><stop offset="1" stop-color="#F6F8FC"/></linearGradient><linearGradient x1="129.508" y1="10" x2="129.508" y2="710" gradientUnits="userSpaceOnUse" spreadMethod="reflect" id="fill17"><stop offset="0" stop-color="#226F8A"/><stop offset="0.44" stop-color="#226F8A"/><stop offset="0.83" stop-color="#87BF9E"/><stop offset="1" stop-color="#87BF9E"/></linearGradient><linearGradient x1="129.508" y1="10" x2="129.508" y2="710" gradientUnits="userSpaceOnUse" spreadMethod="reflect" id="fill18"><stop offset="0" stop-color="#226F8A"/><stop offset="0.44" stop-color="#226F8A"/><stop offset="0.83" stop-color="#87BF9E"/><stop offset="1" stop-color="#87BF9E"/></linearGradient><linearGradient x1="603" y1="268" x2="603" y2="447" gradientUnits="userSpaceOnUse" spreadMethod="reflect" id="fill19"><stop offset="0" stop-color="#EDEEF3"/><stop offset="0.02" stop-color="#EDEEF3"/><stop offset="1" stop-color="#F6F8FC"/></linearGradient><linearGradient x1="603" y1="486" x2="603" y2="666" gradientUnits="userSpaceOnUse" spreadMethod="reflect" id="fill20"><stop offset="0" stop-color="#EDEEF3"/><stop offset="0.02" stop-color="#EDEEF3"/><stop offset="1" stop-color="#F6F8FC"/></linearGradient><linearGradient x1="1107" y1="39" x2="1107" y2="341" gradientUnits="userSpaceOnUse" spreadMethod="reflect" id="fill21"><stop offset="0" stop-color="#EDEEF3"/><stop offset="0.02" stop-color="#EDEEF3"/><stop offset="1" stop-color="#F6F8FC"/></linearGradient><linearGradient x1="1107" y1="365" x2="1107" y2="667" gradientUnits="userSpaceOnUse" spreadMethod="reflect" id="fill22"><stop offset="0" stop-color="#EDEEF3"/><stop offset="0.02" stop-color="#EDEEF3"/><stop offset="1" stop-color="#F6F8FC"/></linearGradient></defs><g clip-path="url(#clip14)"><rect x="0" y="0" width="1280" height="720" fill="#FFFFFF"/><g filter="url(#fx0)" transform="translate(29 23)"><g><path d="M15.4281 44.8272C15.4281 28.5905 28.5905 15.4281 44.8272 15.4281L1196.03 15.4281C1212.27 15.4281 1225.43 28.5905 1225.43 44.8272L1225.43 648.029C1225.43 664.266 1212.27 677.428 1196.03 677.428L44.8272 677.428C28.5905 677.428 15.4281 664.266 15.4281 648.029Z" fill="#F3F4F7" fill-rule="evenodd"/></g></g><g clip-path="url(#clip15)" filter="url(#fx1)" transform="translate(616 333)"><g><path d="M7.57031-15.1758C7.57031-15.0273 7.5625-14.9082 7.54688-14.8184 7.53125-14.7285 7.51367-14.6562 7.49414-14.6016 7.47461-14.5469 7.44922-14.5098 7.41797-14.4902 7.38672-14.4707 7.34766-14.4609 7.30078-14.4609 7.24609-14.4609 7.17773-14.4785 7.0957-14.5137 7.01367-14.5488 6.91406-14.5879 6.79688-14.6309 6.67969-14.6738 6.54102-14.7129 6.38086-14.748 6.2207-14.7832 6.03516-14.8008 5.82422-14.8008 5.53516-14.8008 5.28906-14.7539 5.08594-14.6602 4.88281-14.5664 4.71875-14.4199 4.59375-14.2207 4.46875-14.0215 4.37891-13.7637 4.32422-13.4473 4.26953-13.1309 4.24219-12.7461 4.24219-12.293L4.24219-11.1445 6.59766-11.1445C6.66016-11.1445 6.71289-11.1309 6.75586-11.1035 6.79883-11.0762 6.83789-11.0293 6.87305-10.9629 6.9082-10.8965 6.93555-10.8125 6.95508-10.7109 6.97461-10.6094 6.98437-10.4844 6.98438-10.3359 6.98437-10.0547 6.94922-9.85156 6.87891-9.72656 6.80859-9.60156 6.71484-9.53906 6.59766-9.53906L4.24219-9.53906 4.24219-0.292969C4.24219-0.230469 4.22656-0.177734 4.19531-0.134766 4.16406-0.0917969 4.11133-0.0546875 4.03711-0.0234375 3.96289 0.0078125 3.86328 0.03125 3.73828 0.046875 3.61328 0.0625 3.45703 0.0703125 3.26953 0.0703125 3.08203 0.0703125 2.92578 0.0625 2.80078 0.046875 2.67578 0.03125 2.57617 0.0078125 2.50195-0.0234375 2.42773-0.0546875 2.375-0.0917969 2.34375-0.134766 2.3125-0.177734 2.29688-0.230469 2.29688-0.292969L2.29688-9.53906 0.808594-9.53906C0.683594-9.53906 0.589844-9.60156 0.527344-9.72656 0.464844-9.85156 0.433594-10.0547 0.433594-10.3359 0.433594-10.4844 0.441406-10.6094 0.457031-10.7109 0.472656-10.8125 0.496094-10.8965 0.527344-10.9629 0.558594-11.0293 0.597656-11.0762 0.644531-11.1035 0.691406-11.1309 0.746094-11.1445 0.808594-11.1445L2.29688-11.1445 2.29688-12.2344C2.29688-12.9687 2.36523-13.5996 2.50195-14.127 2.63867-14.6543 2.84766-15.0859 3.12891-15.4219 3.41016-15.7578 3.76367-16.0059 4.18945-16.166 4.61523-16.3262 5.11719-16.4062 5.69531-16.4062 5.96875-16.4062 6.23437-16.3809 6.49219-16.3301 6.75-16.2793 6.94922-16.2246 7.08984-16.166 7.23047-16.1074 7.32422-16.0547 7.37109-16.0078 7.41797-15.9609 7.45703-15.9004 7.48828-15.8262 7.51953-15.752 7.54102-15.6621 7.55273-15.5566 7.56445-15.4512 7.57031-15.3242 7.57031-15.1758Z" fill="#FFFFFF" transform="translate(29.7614 44)"/></g></g><path d="M35 58.3991C35 42.1624 48.1624 29 64.3991 29L1215.6 29C1231.84 29 1245 42.1624 1245 58.3991L1245 661.601C1245 677.838 1231.84 691 1215.6 691L64.3991 691C48.1624 691 35 677.838 35 661.601Z" fill="#F3F4F7" fill-rule="evenodd"/><text fill="#FFFFFF" font-family="Calibri,Calibri_MSFontService,sans-serif" font-weight="400" font-size="24" transform="translate(636.333 368)">f</text><g filter="url(#fx2)" transform="translate(213 26)"><g><path d="M14.5719 44.4059C14.5719 27.929 27.929 14.5719 44.4059 14.5719L716.738 14.5719C733.215 14.5719 746.572 27.929 746.572 44.4059L746.572 163.738C746.572 180.215 733.215 193.572 716.738 193.572L44.4059 193.572C27.929 193.572 14.5719 180.215 14.5719 163.738Z" fill="#BFBFBF" fill-rule="evenodd"/></g></g><path d="M237 79.834C237 63.3571 250.357 50 266.834 50L939.166 50C955.643 50 969 63.3571 969 79.834L969 199.166C969 215.643 955.643 229 939.166 229L266.834 229C250.357 229 237 215.643 237 199.166Z" fill="#BFBFBF" fill-rule="evenodd"/><g filter="url(#fx3)" transform="translate(230 43)"><g><path d="M21.1421 50.9761C21.1421 34.4993 34.4993 21.1421 50.9761 21.1421L723.308 21.1421C739.785 21.1421 753.142 34.4993 753.142 50.9761L753.142 170.308C753.142 186.785 739.785 200.142 723.308 200.142L50.9761 200.142C34.4993 200.142 21.1421 186.785 21.1421 170.308Z" fill="#FF0000" fill-rule="evenodd"/></g></g><path d="M237 79.834C237 63.3571 250.357 50 266.834 50L939.166 50C955.643 50 969 63.3571 969 79.834L969 199.166C969 215.643 955.643 229 939.166 229L266.834 229C250.357 229 237 215.643 237 199.166Z" fill="url(#fill16)" fill-rule="evenodd"/><g filter="url(#fx4)" transform="translate(11 -14)"><g><path d="M14.5719 46.075C14.5719 28.6763 28.6763 14.5719 46.075 14.5719L172.084 14.5719C189.483 14.5719 203.587 28.6763 203.587 46.075L203.587 683.069C203.587 700.467 189.483 714.572 172.084 714.572L46.075 714.572C28.6763 714.572 14.5719 700.467 14.5719 683.069Z" fill="#FF0000" fill-rule="evenodd"/></g></g><path d="M35 41.5031C35 24.1044 49.1044 10 66.5031 10L192.512 10C209.911 10 224.015 24.1044 224.015 41.5031L224.015 678.497C224.015 695.896 209.911 710 192.512 710L66.5031 710C49.1044 710 35 695.896 35 678.497Z" fill="url(#fill17)" fill-rule="evenodd"/><g filter="url(#fx5)" transform="translate(28 3)"><g><path d="M21.1421 52.6452C21.1421 35.2465 35.2465 21.1421 52.6452 21.1421L178.654 21.1421C196.053 21.1421 210.157 35.2465 210.157 52.6452L210.157 689.639C210.157 707.038 196.053 721.142 178.654 721.142L52.6452 721.142C35.2465 721.142 21.1421 707.038 21.1421 689.639Z" fill="#FF0000" fill-rule="evenodd"/></g></g><path d="M35 41.5031C35 24.1044 49.1044 10 66.5031 10L192.512 10C209.911 10 224.015 24.1044 224.015 41.5031L224.015 678.497C224.015 695.896 209.911 710 192.512 710L66.5031 710C49.1044 710 35 695.896 35 678.497Z" fill="url(#fill18)" fill-rule="evenodd"/><g filter="url(#fx6)" transform="translate(213 244)"><g><path d="M14.5719 44.4059C14.5719 27.929 27.929 14.5719 44.4059 14.5719L716.738 14.5719C733.215 14.5719 746.572 27.929 746.572 44.4059L746.572 163.738C746.572 180.215 733.215 193.572 716.738 193.572L44.4059 193.572C27.929 193.572 14.5719 180.215 14.5719 163.738Z" fill="#BFBFBF" fill-rule="evenodd"/></g></g><path d="M237 297.834C237 281.357 250.357 268 266.834 268L939.166 268C955.643 268 969 281.357 969 297.834L969 417.166C969 433.643 955.643 447 939.166 447L266.834 447C250.357 447 237 433.643 237 417.166Z" fill="#BFBFBF" fill-rule="evenodd"/><g filter="url(#fx7)" transform="translate(230 261)"><g><path d="M21.1421 50.9762C21.1421 34.4993 34.4993 21.1422 50.9761 21.1422L723.308 21.1422C739.785 21.1422 753.142 34.4993 753.142 50.9762L753.142 170.308C753.142 186.785 739.785 200.142 723.308 200.142L50.9761 200.142C34.4993 200.142 21.1421 186.785 21.1421 170.308Z" fill="#FF0000" fill-rule="evenodd"/></g></g><path d="M237 297.834C237 281.357 250.357 268 266.834 268L939.166 268C955.643 268 969 281.357 969 297.834L969 417.166C969 433.643 955.643 447 939.166 447L266.834 447C250.357 447 237 433.643 237 417.166Z" fill="url(#fill19)" fill-rule="evenodd"/><g filter="url(#fx8)" transform="translate(213 462)"><g><path d="M14.5719 44.5724C14.5719 28.0036 28.0036 14.5719 44.5724 14.5719L716.571 14.5719C733.14 14.5719 746.572 28.0036 746.572 44.5724L746.572 164.571C746.572 181.14 733.14 194.572 716.571 194.572L44.5724 194.572C28.0036 194.572 14.5719 181.14 14.5719 164.571Z" fill="#BFBFBF" fill-rule="evenodd"/></g></g><path d="M237 516.001C237 499.432 250.432 486 267 486L939 486C955.568 486 969 499.432 969 516.001L969 635.999C969 652.568 955.568 666 939 666L267 666C250.432 666 237 652.568 237 635.999Z" fill="#BFBFBF" fill-rule="evenodd"/><g filter="url(#fx9)" transform="translate(230 479)"><g><path d="M21.1421 51.1427C21.1421 34.5738 34.5738 21.1422 51.1426 21.1422L723.142 21.1422C739.71 21.1422 753.142 34.5738 753.142 51.1427L753.142 171.142C753.142 187.71 739.71 201.142 723.142 201.142L51.1426 201.142C34.5738 201.142 21.1421 187.71 21.1421 171.142Z" fill="#FF0000" fill-rule="evenodd"/></g></g><path d="M237 516.001C237 499.432 250.432 486 267 486L939 486C955.568 486 969 499.432 969 516.001L969 635.999C969 652.568 955.568 666 939 666L267 666C250.432 666 237 652.568 237 635.999Z" fill="url(#fill20)" fill-rule="evenodd"/><g filter="url(#fx10)" transform="translate(967 15)"><g><path d="M14.5719 53.2394C14.5719 31.8839 31.8839 14.5719 53.2394 14.5719L207.904 14.5719C229.26 14.5719 246.572 31.8839 246.572 53.2394L246.572 277.904C246.572 299.26 229.26 316.572 207.904 316.572L53.2394 316.572C31.8839 316.572 14.5719 299.26 14.5719 277.904Z" fill="#BFBFBF" fill-rule="evenodd"/></g></g><path d="M991 77.6675C991 56.312 1008.31 39 1029.67 39L1184.33 39C1205.69 39 1223 56.312 1223 77.6675L1223 302.332C1223 323.688 1205.69 341 1184.33 341L1029.67 341C1008.31 341 991 323.688 991 302.332Z" fill="#BFBFBF" fill-rule="evenodd"/><g filter="url(#fx11)" transform="translate(984 32)"><g><path d="M21.1422 59.8096C21.1422 38.4542 38.4542 21.1421 59.8097 21.1421L214.475 21.1421C235.83 21.1421 253.142 38.4542 253.142 59.8096L253.142 284.475C253.142 305.83 235.83 323.142 214.475 323.142L59.8097 323.142C38.4542 323.142 21.1422 305.83 21.1422 284.475Z" fill="#FF0000" fill-rule="evenodd"/></g></g><path d="M991 77.6675C991 56.312 1008.31 39 1029.67 39L1184.33 39C1205.69 39 1223 56.312 1223 77.6675L1223 302.332C1223 323.688 1205.69 341 1184.33 341L1029.67 341C1008.31 341 991 323.688 991 302.332Z" fill="url(#fill21)" fill-rule="evenodd"/><g filter="url(#fx12)" transform="translate(967 341)"><g><path d="M14.5719 53.2394C14.5719 31.8839 31.8839 14.5719 53.2394 14.5719L207.904 14.5719C229.26 14.5719 246.572 31.8839 246.572 53.2394L246.572 277.904C246.572 299.26 229.26 316.572 207.904 316.572L53.2394 316.572C31.8839 316.572 14.5719 299.26 14.5719 277.904Z" fill="#BFBFBF" fill-rule="evenodd"/></g></g><path d="M991 403.667C991 382.312 1008.31 365 1029.67 365L1184.33 365C1205.69 365 1223 382.312 1223 403.667L1223 628.333C1223 649.688 1205.69 667 1184.33 667L1029.67 667C1008.31 667 991 649.688 991 628.333Z" fill="#BFBFBF" fill-rule="evenodd"/><g filter="url(#fx13)" transform="translate(984 358)"><g><path d="M21.1422 59.8096C21.1422 38.4542 38.4542 21.1422 59.8097 21.1422L214.475 21.1422C235.83 21.1422 253.142 38.4542 253.142 59.8096L253.142 284.475C253.142 305.83 235.83 323.142 214.475 323.142L59.8097 323.142C38.4542 323.142 21.1422 305.83 21.1422 284.475Z" fill="#FF0000" fill-rule="evenodd"/></g></g><path d="M991 403.667C991 382.312 1008.31 365 1029.67 365L1184.33 365C1205.69 365 1223 382.312 1223 403.667L1223 628.333C1223 649.688 1205.69 667 1184.33 667L1029.67 667C1008.31 667 991 649.688 991 628.333Z" fill="url(#fill22)" fill-rule="evenodd"/></g></svg>